<svg xmlns="http://www.w3.org/2000/svg" xmlns:xlink="http://www.w3.org/1999/xlink" viewBox="0 0 720 316"><defs><style>.a{fill:none;}.b{fill:url(#a);}.c{fill:url(#b);}.d{fill:url(#c);}.e{fill:url(#d);}.f,.g,.m{opacity:0.2;}.f{fill:url(#e);}.g{fill:url(#f);}.h{fill:url(#g);}.i{fill:url(#h);}.ah,.j,.t{fill:#202124;}.j{opacity:0.05;}.k{fill:#e8eaed;}.l{fill:#dadce0;}.m{fill:url(#i);}.n{fill:#aecbfa;}.o{fill:url(#j);}.p{fill:url(#k);}.q{fill:#fff;}.r{fill:#3c4043;}.s{fill:#5f6368;}.u{fill:#80868b;}.v{fill:#9aa0a6;}.w{fill:url(#l);}.x{fill:#f28b82;}.y{fill:#ee675c;}.z{fill:#f8f9fa;}.aa{fill:#f6aea9;}.ab{fill:url(#m);}.ac{fill:#e94235;}.ad{opacity:0.1;}.ae{fill:url(#n);}.af{fill:url(#o);}.ag{fill:url(#p);}.ah,.aj{opacity:0.15;}.ai{fill:#fcc934;}.ak{clip-path:url(#q);}.al{fill:url(#r);}.am{fill:#fde293;}.an{fill:url(#s);}</style><linearGradient id="a" x1="129.56" y1="27.31" x2="129.56" y2="95.84" gradientUnits="userSpaceOnUse"><stop offset="0" stop-color="#f1f3f4"/><stop offset="1" stop-color="#fff"/></linearGradient><linearGradient id="b" x1="112.82" y1="27.31" x2="112.82" y2="95.84" gradientUnits="userSpaceOnUse"><stop offset="0" stop-color="#dadce0"/><stop offset="1" stop-color="#fff"/></linearGradient><linearGradient id="c" x1="579.38" y1="47.2" x2="579.38" y2="155.71" xlink:href="#a"/><linearGradient id="d" x1="537.88" y1="47.2" x2="537.88" y2="155.71" xlink:href="#b"/><linearGradient id="e" x1="450.42" y1="308.09" x2="668.83" y2="308.09" gradientUnits="userSpaceOnUse"><stop offset="0" stop-color="#202124" stop-opacity="0"/><stop offset="0.19" stop-color="#202124"/><stop offset="0.79" stop-color="#202124"/><stop offset="1" stop-color="#202124" stop-opacity="0"/></linearGradient><linearGradient id="f" x1="175.65" y1="308.09" x2="463.53" y2="308.09" xlink:href="#e"/><linearGradient id="g" x1="136.75" y1="124.97" x2="136.75" y2="213.98" xlink:href="#a"/><linearGradient id="h" x1="84.98" y1="127.97" x2="84.98" y2="225.98" xlink:href="#b"/><linearGradient id="i" x1="46.19" y1="308.09" x2="179.41" y2="308.09" xlink:href="#e"/><linearGradient id="j" x1="41.44" y1="294.68" x2="157.74" y2="208.73" gradientTransform="translate(-116.21 322.55) rotate(-90)" gradientUnits="userSpaceOnUse"><stop offset="0" stop-color="#1967d2"/><stop offset="1" stop-color="#4285f4"/></linearGradient><linearGradient id="k" x1="40.58" y1="256.24" x2="158.75" y2="210.26" gradientTransform="translate(-110.92 309.77) rotate(-90)" gradientUnits="userSpaceOnUse"><stop offset="0" stop-color="#3c4043"/><stop offset="1" stop-color="#5f6368"/></linearGradient><linearGradient id="l" x1="298.05" y1="193.57" x2="254.39" y2="236.24" gradientUnits="userSpaceOnUse"><stop offset="0" stop-color="#e8eaed"/><stop offset="1" stop-color="#bdc1c6"/></linearGradient><linearGradient id="m" x1="469.2" y1="119.45" x2="436.62" y2="190.37" gradientUnits="userSpaceOnUse"><stop offset="0" stop-color="#f6aea9"/><stop offset="1" stop-color="#f28b82"/></linearGradient><linearGradient id="n" x1="643.54" y1="219.2" x2="687.45" y2="219.2" gradientTransform="translate(1330.99 438.4) rotate(180)" gradientUnits="userSpaceOnUse"><stop offset="0" stop-color="#f8f9fa"/><stop offset="1" stop-color="#f1f3f4"/></linearGradient><linearGradient id="o" x1="687.62" y1="219.2" x2="666.9" y2="219.2" gradientUnits="userSpaceOnUse"><stop offset="0" stop-color="#dadce0"/><stop offset="1" stop-color="#e8eaed"/></linearGradient><linearGradient id="p" x1="534.29" y1="258.81" x2="622.91" y2="163.57" xlink:href="#o"/><clipPath id="q"><rect class="a" x="643.54" y="127.32" width="43.91" height="183.77" transform="translate(1330.98 438.41) rotate(-180)"/></clipPath><linearGradient id="r" x1="519.58" y1="381.11" x2="487.47" y2="381.11" gradientTransform="matrix(1.39, -1.39, 0.56, 0.56, -252.01, 664.35)" gradientUnits="userSpaceOnUse"><stop offset="0" stop-color="#202124"/><stop offset="1" stop-color="#202124" stop-opacity="0"/></linearGradient><linearGradient id="s" x1="678.78" y1="176.3" x2="690.97" y2="158.37" gradientUnits="userSpaceOnUse"><stop offset="0" stop-color="#fbbc04"/><stop offset="1" stop-color="#fcc934"/></linearGradient></defs><title>d_v4geo</title><path class="b" d="M146.15,46.6V42a17,17,0,0,0-34.1,0V46.6H94.36v93.73h70.39V46.6ZM113.94,42a15.16,15.16,0,0,1,30.32,0V46.6H113.94Z"/><path class="c" d="M129.41,46.6V42a17.05,17.05,0,1,0-34.1,0V46.6H77.62v93.73H148V46.6ZM97.2,42a15.16,15.16,0,0,1,30.32,0V46.6H97.2Z"/><path class="d" d="M590.65,77.75V70.51a27,27,0,1,0-54,0v7.24h-28V226.16H650.11V77.75Zm-51-7.24a24,24,0,1,1,48,0v7.24h-48Z"/><path class="e" d="M564.15,77.75V70.51a27,27,0,1,0-54,0v7.24h-58V226.16H623.61V77.75Zm-51-7.24a24,24,0,1,1,48,0v7.24h-48Z"/><rect class="f" x="450.42" y="305.09" width="218.42" height="6"/><rect class="g" x="175.65" y="305.09" width="287.88" height="6"/><rect class="h" x="70.03" y="104.4" width="133.42" height="124.87"/><rect class="i" x="18.27" y="104.4" width="133.42" height="124.87"/><rect class="j" x="151.74" y="104.4" width="51.72" height="21.05"/><rect class="j" x="18.27" y="104.4" width="133.42" height="21.05"/><rect class="k" x="68.34" y="104.4" width="138.96" height="16.75"/><rect class="l" x="14.43" y="104.4" width="138.96" height="16.75"/><rect class="m" x="46.19" y="305.09" width="133.21" height="6"/><rect class="n" x="83.44" y="139.71" width="106.6" height="164.46" rx="16.15" ry="16.15" transform="translate(196.99 -31.69) rotate(45)"/><rect class="o" x="81.44" y="139.71" width="106.6" height="164.46" rx="16.15" ry="16.15" transform="translate(196.4 -30.28) rotate(45)"/><rect class="p" x="110.7" y="126.93" width="22.52" height="164.46" transform="translate(183.62 -24.98) rotate(45)"/><rect class="q" x="82.77" y="239.21" width="85.58" height="15.76" transform="translate(-137.94 161.15) rotate(-45)"/><path class="r" d="M308.3,297.13h0a5.56,5.56,0,0,1-5.55-5.18l-1.95-27.77h15L313.85,292A5.57,5.57,0,0,1,308.3,297.13Z"/><path class="r" d="M430.47,297.13h0a5.56,5.56,0,0,1-5.55-5.18L423,264.18h15L436,292A5.56,5.56,0,0,1,430.47,297.13Z"/><path class="s" d="M432.7,311.45a17,17,0,1,0,0-34.05h-4.61v34.05h4.61"/><circle class="t" cx="428.09" cy="294.42" r="17.03"/><circle class="s" cx="428.09" cy="294.42" r="9.73"/><path class="u" d="M381.12,311.45a17,17,0,1,0,0-34.05h-4.61v34.05h4.61"/><circle class="r" cx="376.51" cy="294.42" r="17.03"/><circle class="u" cx="376.51" cy="294.42" r="9.73"/><path class="v" d="M376.8,297.13h0a5.56,5.56,0,0,1-5.55-5.18l-1.94-27.77h15L382.35,292A5.56,5.56,0,0,1,376.8,297.13Z"/><polygon class="u" points="383.68 273.06 384.29 264.23 369.31 264.23 369.93 273.06 383.68 273.06"/><path class="w" d="M445.76,270.06H297.48a24,24,0,0,1-24-23.12l-8-210.39a4.53,4.53,0,0,0-3-4.08L251,28.53a6,6,0,0,1,3.89-11.35l11.5,3.94a16.6,16.6,0,0,1,11.13,15l8,210.39a12,12,0,0,0,12,11.57H445.76a6,6,0,0,1,0,12Z"/><path class="r" d="M252.16,28.27H207.73a5.77,5.77,0,1,1,0-11.53h44.43a5.77,5.77,0,0,1,0,11.53Z"/><polygon class="x" points="286.78 196.37 236.88 196.37 230.64 65.3 280.54 65.3 286.78 196.37"/><path class="y" d="M470.19,104l3.62,3.63-6.74,6.73-6.73-6.73,4.67-4.68-5.14-1-4.35,4.35L449,99.67l-12.07-2.44,2.25,2.25-6.73,6.74-6.74-6.74,3.76-3.76-5.92-1.2-2.65,2.65-4-4-12.57-2.55-6.53,6.54L391,90.43l2.07-2.06-5.14-1-1.74,1.74-2.63-2.62-7.74-1.57,5.55,5.55-6.73,6.74-6.74-6.74,5.95-6-5.13-1-5.63,5.63-6.74-6.74,1.16-1.16-15-3,4.18,4.18L340,89.07l-6.74-6.74,5-5-59.27-12,5.77,131.06h16.83l-3-3,6.74-6.74,6.74,6.74-3,3h15.68l-3-3,6.74-6.74,6.73,6.74-3,3h15.68l-3-3,6.74-6.74,6.73,6.74-3,3H371l-3-3,6.74-6.74,6.73,6.74-3,3h15.68l-3-3,6.74-6.74,6.73,6.74-3,3h15.68l-3-3,6.74-6.74,6.73,6.74-3,3h15.68l-3-3L444,186.6l6.73,6.74-3,3h15.68l-3-3,6.73-6.74,6.74,6.74-3,3H474a4.61,4.61,0,0,0,4.62-4.61V105.66Zm-7.93,12.67-6.74,6.74-6.73-6.74,6.73-6.73ZM351.58,131.47l-6.74-6.73,6.74-6.74,6.73,6.74Zm11.55-4.42,6.73,6.73-6.73,6.74-6.74-6.74Zm-16.37,6.73L340,140.52l-6.74-6.74,6.74-6.73Zm-18.28-2.31-6.74-6.73,6.74-6.74,6.73,6.74Zm-11.55-8.1-6.74-6.74,6.74-6.73,6.74,6.73Zm6.74,10.41-6.74,6.74-6.74-6.74,6.74-6.73Zm0,17.15-6.74,6.74-6.74-6.74,6.74-6.73Zm-1.93-9,6.74-6.74,6.73,6.74-6.73,6.73ZM340,144.2l6.73,6.73L340,157.67l-6.74-6.74Zm4.81-2.31,6.74-6.74,6.73,6.74-6.73,6.73Zm18.29,2.31,6.73,6.73-6.73,6.74-6.74-6.74Zm4.81-2.31,6.74-6.74,6.73,6.74-6.73,6.73Zm11.55-8.11,6.74-6.73,6.73,6.73-6.73,6.74Zm6.74,10.42,6.73,6.73-6.73,6.74-6.74-6.74Zm4.81-2.31,6.74-6.74,6.73,6.74-6.73,6.73Zm11.55-8.11,6.74-6.73,6.73,6.73-6.73,6.74Zm6.74,10.42,6.73,6.73-6.73,6.74-6.74-6.74Zm4.81-2.31,6.74-6.74,6.73,6.74-6.73,6.73Zm18.29,2.31,6.73,6.73-6.73,6.74-6.74-6.74Zm4.81-2.31,6.74-6.74,6.73,6.74L444,148.62Zm0-17.15L444,118l6.73,6.74L444,131.47Zm1.92,9-6.73,6.74-6.74-6.74,6.74-6.73Zm-18.28-2.31-6.74-6.73,6.74-6.74,6.73,6.74Zm-11.55-8.1-6.74-6.74,6.74-6.73,6.73,6.73Zm-4.82,1.37-6.73,6.73L391,124.74l6.74-6.74Zm-18.28-1.37-6.74-6.74,6.74-6.73,6.73,6.73Zm-4.82,1.37-6.73,6.73-6.74-6.73,6.74-6.74Zm-18.28-1.37-6.74-6.74,6.74-6.73,6.73,6.73Zm-11.55-9.05-6.74-6.73,6.74-6.74,6.73,6.74Zm-4.82,2.31L340,123.37l-6.74-6.74L340,109.9Zm-18.28-2.31-6.74-6.73,6.74-6.74,6.73,6.74Zm-11.55-8.1-6.74-6.74,6.74-6.73,6.74,6.73Zm-4.81,1.37-6.74,6.73-6.74-6.73,6.74-6.74Zm0,17.15-6.74,6.73-6.74-6.73,6.74-6.74Zm0,17.15-6.74,6.73-6.74-6.73,6.74-6.74Zm0,17.15-6.74,6.73L298.64,159l6.74-6.74Zm4.81,2.31,6.74,6.73-6.74,6.74-6.74-6.74Zm4.81-2.31,6.74-6.74,6.73,6.74-6.73,6.73ZM340,161.35l6.73,6.73L340,174.82l-6.74-6.74Zm4.81-2.31,6.74-6.74,6.73,6.74-6.73,6.73Zm18.29,2.31,6.73,6.73-6.73,6.74-6.74-6.74Zm4.81-2.31,6.74-6.74,6.73,6.74-6.73,6.73Zm18.29,2.31,6.73,6.73-6.73,6.74-6.74-6.74ZM391,159l6.74-6.74,6.73,6.74-6.73,6.73Zm18.29,2.31,6.73,6.73-6.73,6.74-6.74-6.74Zm4.81-2.31,6.74-6.74,6.73,6.74-6.73,6.73Zm18.29,2.31,6.73,6.73-6.73,6.74-6.74-6.74Zm4.81-2.31L444,152.3l6.73,6.74L444,165.77Zm18.28,2.31,6.74,6.73-6.74,6.74-6.73-6.74Zm-6.73-10.42,6.73-6.73,6.74,6.73-6.74,6.74Zm0-17.15,6.73-6.73,6.74,6.73-6.74,6.74ZM444,100.85l6.73,6.74L444,114.32l-6.74-6.73Zm-4.82,15.78-6.73,6.74-6.74-6.74,6.74-6.73Zm-11.55-9-6.73,6.73-6.74-6.73,6.74-6.74ZM409.33,92.75l6.73,6.73-6.73,6.74-6.74-6.74Zm-4.82,14.84-6.73,6.73L391,107.59l6.74-6.74ZM386.23,92.75,393,99.48l-6.73,6.74-6.74-6.74Zm-4.82,14.84-6.73,6.73-6.74-6.73,6.74-6.74Zm-11.55-8.11-6.73,6.74-6.74-6.74,6.74-6.73ZM351.58,83.7l6.73,6.73-6.73,6.74-6.74-6.74Zm-4.82,15.78L340,106.22l-6.74-6.74L340,92.75Zm-11.55-9-6.73,6.74-6.74-6.74,6.74-6.73ZM316.93,75.6l6.74,6.73-6.74,6.74-6.74-6.74Zm-4.81,14.83-6.74,6.74-6.74-6.74,6.74-6.73ZM293.83,75.6l6.74,6.73-6.74,6.74-6.74-6.74Zm0,17.15,6.74,6.73-6.74,6.74-6.74-6.74Zm0,17.15,6.74,6.73-6.74,6.74-6.74-6.74Zm0,17.15,6.74,6.73-6.74,6.74-6.74-6.74Zm0,17.15,6.74,6.73-6.74,6.74-6.74-6.74Zm0,17.15,6.74,6.73-6.74,6.74-6.74-6.74Zm0,30.62-6.74-6.73,6.74-6.74,6.74,6.74Zm4.81-15.78,6.74-6.74,6.74,6.74-6.74,6.73ZM316.93,192l-6.74-6.73,6.74-6.74,6.74,6.74Zm4.81-15.78,6.74-6.74,6.73,6.74-6.73,6.73ZM340,192l-6.74-6.73L340,178.5l6.73,6.74Zm4.81-15.78,6.74-6.74,6.73,6.74-6.73,6.73ZM363.13,192l-6.74-6.73,6.74-6.74,6.73,6.74Zm4.81-15.78,6.74-6.74,6.73,6.74-6.73,6.73ZM386.23,192l-6.74-6.73,6.74-6.74,6.73,6.74ZM391,176.19l6.74-6.74,6.73,6.74-6.73,6.73ZM409.33,192l-6.74-6.73,6.74-6.74,6.73,6.74Zm4.81-15.78,6.74-6.74,6.73,6.74-6.73,6.73ZM432.43,192l-6.74-6.73,6.74-6.74,6.73,6.74Zm4.81-15.78,6.74-6.74,6.73,6.74L444,182.92ZM455.52,192l-6.73-6.73,6.73-6.74,6.74,6.74Zm11.55-9.05-6.73-6.73,6.73-6.74,6.74,6.74Zm0-17.15L460.34,159l6.73-6.74,6.74,6.74Zm0-17.15-6.73-6.73,6.73-6.74,6.74,6.74Zm0-17.15-6.73-6.73,6.73-6.74,6.74,6.74Z"/><path class="y" d="M287.59,75.26l182.9,37v76H292.56l-5-113m-8.52-10,5.77,131.06H474a4.61,4.61,0,0,0,4.62-4.61V105.66L279.07,65.3Z"/><path class="z" d="M473,196.37H430.13V105.66h48.44v85.13A5.58,5.58,0,0,1,473,196.37Z"/><path class="aa" d="M473,196.37h-47.3V105.66h52.88v85.13A5.58,5.58,0,0,1,473,196.37Z"/><path class="ab" d="M470.29,189.41H436.85v-76.8h37v73.28A3.52,3.52,0,0,1,470.29,189.41Z"/><path class="x" d="M436.85,112.61v2.3h34.66v73.9a3.31,3.31,0,0,1-.06.55,2.92,2.92,0,0,0,2.36-2.86V112.61Z"/><path class="s" d="M310.49,311.45a17,17,0,0,0,0-34.05h-4.62v34.05h4.62"/><circle class="t" cx="305.87" cy="294.42" r="17.03"/><circle class="s" cx="305.87" cy="294.42" r="9.73"/><path class="u" d="M255.74,311.45a17,17,0,1,0,0-34.05h-4.61v34.05h4.61"/><circle class="r" cx="251.13" cy="294.42" r="17.03"/><circle class="u" cx="251.13" cy="294.42" r="9.73"/><path class="v" d="M251.13,297.13h0a5.57,5.57,0,0,1-5.56-5.18l-1.94-27.77h15L256.68,292A5.57,5.57,0,0,1,251.13,297.13Z"/><polygon class="u" points="258 273.06 258.62 264.23 243.63 264.23 244.25 273.06 258 273.06"/><path class="k" d="M398,270.06H249.75a24,24,0,0,1-24-23.12l-8-210.39a4.53,4.53,0,0,0-3-4.08l-11.5-3.94a6,6,0,0,1,3.89-11.35l11.5,3.94a16.59,16.59,0,0,1,11.13,15l8,210.39a12,12,0,0,0,12,11.57H398a6,6,0,0,1,0,12Z"/><path class="ac" d="M421.76,104l3.62,3.63-6.74,6.73-6.73-6.73,4.67-4.68-5.14-1-4.35,4.35-6.55-6.55-12.06-2.44,2.25,2.25L384,106.22l-6.73-6.74L381,95.72l-5.93-1.2-2.65,2.65-4-4-12.57-2.55-6.54,6.54-6.73-6.74,2.06-2.06-5.13-1-1.75,1.74-2.62-2.62-7.75-1.57L333,90.43l-6.74,6.74-6.73-6.74,5.95-6-5.14-1-5.63,5.63L308,82.33l1.16-1.16-15-3,4.18,4.18-6.73,6.74-6.74-6.74,5-5-59.26-12,5.76,131.06h16.84l-3-3L257,186.6l6.73,6.74-3,3h15.68l-3-3,6.74-6.74,6.73,6.74-3,3h15.68l-3-3,6.73-6.74,6.74,6.74-3,3h15.68l-3-3,6.73-6.74,6.74,6.74-3,3h15.68l-3-3,6.73-6.74,6.74,6.74-3,3h15.68l-3-3,6.73-6.74,6.74,6.74-3,3h15.68l-3-3,6.73-6.74,6.74,6.74-3,3h15.68l-3-3,6.73-6.74,6.74,6.74-3,3h3.17a4.6,4.6,0,0,0,4.61-4.61V105.66Zm-7.93,12.67-6.74,6.74-6.73-6.74,6.73-6.73ZM303.14,131.47l-6.73-6.73,6.73-6.74,6.74,6.74Zm11.55-4.42,6.74,6.73-6.74,6.74L308,133.78Zm-16.36,6.73-6.73,6.74-6.74-6.74,6.74-6.73Zm-18.28-2.31-6.74-6.73,6.74-6.74,6.73,6.74Zm-11.55-8.1-6.74-6.74,6.74-6.73,6.73,6.73Zm6.73,10.41-6.73,6.74-6.74-6.74,6.74-6.73Zm0,17.15-6.73,6.74-6.74-6.74,6.74-6.73Zm-1.92-9,6.74-6.74,6.73,6.74-6.73,6.73Zm18.29,2.31,6.73,6.73-6.73,6.74-6.74-6.74Zm4.81-2.31,6.73-6.74,6.74,6.74-6.74,6.73Zm18.28,2.31,6.74,6.73-6.74,6.74L308,150.93Zm4.82-2.31,6.73-6.74,6.74,6.74-6.74,6.73Zm11.55-8.11,6.73-6.73,6.74,6.73-6.74,6.74Zm6.73,10.42,6.74,6.73-6.74,6.74-6.73-6.74Zm4.82-2.31,6.73-6.74,6.74,6.74-6.74,6.73Zm11.55-8.11,6.73-6.73,6.74,6.73-6.74,6.74Zm6.73,10.42,6.74,6.73-6.74,6.74-6.73-6.74Zm4.82-2.31,6.73-6.74,6.74,6.74-6.74,6.73ZM384,144.2l6.74,6.73L384,157.67l-6.73-6.74Zm4.82-2.31,6.73-6.74,6.74,6.74-6.74,6.73Zm0-17.15,6.73-6.74,6.74,6.74-6.74,6.73Zm1.92,9L384,140.52l-6.73-6.74,6.73-6.73Zm-18.29-2.31-6.73-6.73,6.73-6.74,6.74,6.74Zm-11.55-8.1-6.73-6.74,6.73-6.73,6.74,6.73Zm-4.81,1.37-6.74,6.73-6.73-6.73,6.73-6.74Zm-18.29-1.37-6.73-6.74,6.73-6.73,6.74,6.73ZM333,124.74l-6.74,6.73-6.73-6.73,6.73-6.74Zm-18.29-1.37L308,116.63l6.73-6.73,6.74,6.73Zm-11.55-9.05-6.73-6.73,6.73-6.74,6.74,6.74Zm-4.81,2.31-6.73,6.74-6.74-6.74,6.74-6.73Zm-18.28-2.31-6.74-6.73,6.74-6.74,6.73,6.74Zm-11.55-8.1-6.74-6.74,6.74-6.73,6.73,6.73Zm-4.82,1.37L257,114.32l-6.74-6.73,6.74-6.74Zm0,17.15L257,131.47l-6.74-6.73L257,118Zm0,17.15L257,148.62l-6.74-6.73,6.74-6.74Zm0,17.15L257,165.77,250.21,159,257,152.3Zm4.82,2.31,6.73,6.73-6.73,6.74-6.74-6.74Zm4.81-2.31,6.74-6.74,6.73,6.74-6.73,6.73Zm18.29,2.31,6.73,6.73-6.73,6.74-6.74-6.74Zm4.81-2.31,6.73-6.74,6.74,6.74-6.74,6.73Zm18.28,2.31,6.74,6.73-6.74,6.74L308,168.08Zm4.82-2.31,6.73-6.74L333,159l-6.74,6.73Zm18.28,2.31,6.74,6.73-6.74,6.74-6.73-6.74Zm4.82-2.31,6.73-6.74,6.74,6.74-6.74,6.73Zm18.28,2.31,6.74,6.73-6.74,6.74-6.73-6.74Zm4.82-2.31,6.73-6.74,6.74,6.74-6.74,6.73ZM384,161.35l6.74,6.73L384,174.82l-6.73-6.74Zm4.82-2.31,6.73-6.74,6.74,6.74-6.74,6.73Zm18.28,2.31,6.74,6.73-6.74,6.74-6.73-6.74Zm-6.73-10.42,6.73-6.73,6.74,6.73-6.74,6.74Zm0-17.15,6.73-6.73,6.74,6.73-6.74,6.74Zm-4.82-32.93,6.74,6.74-6.74,6.73-6.73-6.73Zm-4.81,15.78L384,123.37l-6.73-6.74L384,109.9Zm-11.55-9-6.74,6.73-6.73-6.73,6.73-6.74ZM360.89,92.75l6.74,6.73-6.74,6.74-6.73-6.74Zm-4.81,14.84-6.74,6.73-6.73-6.73,6.73-6.74ZM337.79,92.75l6.74,6.73-6.74,6.74-6.73-6.74ZM333,107.59l-6.74,6.73-6.73-6.73,6.73-6.74Zm-11.55-8.11-6.74,6.74L308,99.48l6.73-6.73ZM303.14,83.7l6.74,6.73-6.74,6.74-6.73-6.74Zm-4.81,15.78-6.73,6.74-6.74-6.74,6.74-6.73Zm-11.55-9-6.73,6.74-6.74-6.74,6.74-6.73ZM268.5,75.6l6.73,6.73-6.73,6.74-6.74-6.74Zm-4.82,14.83L257,97.17l-6.74-6.74L257,83.7ZM245.4,75.6l6.73,6.73-6.73,6.74-6.74-6.74Zm0,17.15,6.73,6.73-6.73,6.74-6.74-6.74Zm0,17.15,6.73,6.73-6.73,6.74-6.74-6.74Zm0,17.15,6.73,6.73-6.73,6.74-6.74-6.74Zm0,17.15,6.73,6.73-6.73,6.74-6.74-6.74Zm0,17.15,6.73,6.73-6.73,6.74-6.74-6.74Zm0,30.62-6.74-6.73,6.74-6.74,6.73,6.74Zm4.81-15.78,6.74-6.74,6.73,6.74L257,182.92ZM268.5,192l-6.74-6.73,6.74-6.74,6.73,6.74Zm4.81-15.78,6.74-6.74,6.73,6.74-6.73,6.73ZM291.6,192l-6.74-6.73,6.74-6.74,6.73,6.74Zm4.81-15.78,6.73-6.74,6.74,6.74-6.74,6.73ZM314.69,192,308,185.24l6.73-6.74,6.74,6.74Zm4.82-15.78,6.73-6.74,6.74,6.74-6.74,6.73ZM337.79,192l-6.73-6.73,6.73-6.74,6.74,6.74Zm4.82-15.78,6.73-6.74,6.74,6.74-6.74,6.73ZM360.89,192l-6.73-6.73,6.73-6.74,6.74,6.74Zm4.82-15.78,6.73-6.74,6.74,6.74-6.74,6.73ZM384,192l-6.73-6.73L384,178.5l6.74,6.74Zm4.82-15.78,6.73-6.74,6.74,6.74-6.74,6.73ZM407.09,192l-6.73-6.73,6.73-6.74,6.74,6.74Zm11.55-9.05-6.73-6.73,6.73-6.74,6.74,6.74Zm0-17.15L411.91,159l6.73-6.74,6.74,6.74Zm0-17.15-6.73-6.73,6.73-6.74,6.74,6.74Zm0-17.15-6.73-6.73,6.73-6.74,6.74,6.74Z"/><g class="ad"><polygon class="t" points="390.73 99.48 384.22 105.99 389.36 107.03 395.54 100.85 402.28 107.58 400.57 109.3 406.49 110.5 407.09 109.9 408 110.8 416.93 112.61 411.9 107.58 415.42 104.07 410.28 103.03 407.09 106.22 402.28 101.41 390.21 98.97 390.73 99.48"/><polygon class="t" points="367.63 99.48 365.01 102.1 370.15 103.14 372.44 100.85 375.9 104.31 383.65 105.88 377.26 99.48 379.87 96.87 373.94 95.67 372.44 97.17 370.19 94.92 361.26 93.11 367.63 99.48"/><polygon class="t" points="332.98 90.44 328.67 94.75 334.59 95.95 337.79 92.75 342.62 97.58 354.69 100.02 354.16 99.48 360.65 92.99 354.73 91.79 349.34 97.17 342.61 90.44 343.52 89.52 338.38 88.48 337.79 89.07 336.91 88.18 329.16 86.62 332.98 90.44"/><path class="t" d="M425.38,107.59l-5.6,5.59,1.13.23v6.85l4.47,4.48-4.47,4.47v8.2l4.47,4.48-4.47,4.47v8.21l4.47,4.47-4.47,4.47v8.21l4.47,4.47-4.47,4.47v8.21l4.47,4.47-3,3h3.11a3.51,3.51,0,0,0,3.52-3.51v-86l-5.48-1.11Z"/><polygon class="t" points="409.62 189.45 407.09 191.97 404.57 189.45 398.39 189.45 402.28 193.34 399.25 196.37 414.93 196.37 411.9 193.34 415.8 189.45 409.62 189.45"/><polygon class="t" points="295.88 79.88 298.33 82.33 293.11 87.56 298.25 88.6 303.14 83.7 309.88 90.44 309.45 90.86 322.6 93.52 319.51 90.44 324.31 85.63 319.17 84.59 314.69 89.07 307.96 82.33 307.96 82.33 295.88 79.88"/><polygon class="t" points="317.22 189.45 314.69 191.97 312.17 189.45 305.99 189.45 309.88 193.34 306.86 196.37 322.54 196.37 319.51 193.34 323.4 189.45 317.22 189.45"/><polygon class="t" points="271.02 189.45 268.5 191.97 265.97 189.45 259.79 189.45 263.68 193.34 260.66 196.37 276.34 196.37 273.31 193.34 277.2 189.45 271.02 189.45"/><polygon class="t" points="230.7 66.7 236.4 196.37 253.24 196.37 250.21 193.34 254.1 189.45 247.92 189.45 245.4 191.97 238.66 185.24 242.62 181.28 242.19 171.62 238.66 168.09 241.89 164.85 241.4 153.68 238.66 150.93 241.17 148.42 240.61 135.74 238.66 133.78 240.45 132 239.82 117.8 238.66 116.63 239.73 115.57 239.03 99.86 238.66 99.48 239 99.14 238 76.41 243.47 77.52 245.4 75.59 248.29 78.49 262.69 81.4 268.5 75.59 275.23 82.33 273.89 83.67 279.03 84.71 280.05 83.7 281.57 85.22 289.32 86.79 284.86 82.33 288.75 78.44 230.7 66.7"/><polygon class="t" points="386.52 189.45 383.99 191.97 381.47 189.45 375.29 189.45 379.18 193.34 376.15 196.37 391.83 196.37 388.81 193.34 392.7 189.45 386.52 189.45"/><polygon class="t" points="294.12 189.45 291.6 191.97 289.07 189.45 282.89 189.45 286.78 193.34 283.75 196.37 299.44 196.37 296.41 193.34 300.3 189.45 294.12 189.45"/><polygon class="t" points="340.32 189.45 337.79 191.97 335.27 189.45 329.09 189.45 332.98 193.34 329.95 196.37 345.63 196.37 342.61 193.34 346.5 189.45 340.32 189.45"/><polygon class="t" points="363.42 189.45 360.89 191.97 358.37 189.45 352.19 189.45 356.08 193.34 353.05 196.37 368.73 196.37 365.71 193.34 369.6 189.45 363.42 189.45"/></g><path class="ac" d="M239.16,75.26l182.9,37v76H244.13l-5-113m-8.52-10,5.76,131.06H425.52a4.6,4.6,0,0,0,4.61-4.61V105.66L230.64,65.3Z"/><rect class="ae" x="643.54" y="127.32" width="43.91" height="183.77" transform="translate(1330.98 438.41) rotate(-180)"/><polygon class="af" points="665.49 288.81 687.45 311.09 687.45 127.32 665.49 127.32 665.49 288.81"/><rect class="ag" x="498.75" y="127.32" width="144.79" height="183.77"/><circle class="t" cx="548.57" cy="150.89" r="4.9"/><circle class="t" cx="593.72" cy="150.89" r="4.9"/><path class="ah" d="M569.35,209.72a24.33,24.33,0,0,1-24.3-24.3V152.83a1.73,1.73,0,0,1,3.45,0v32.59a20.85,20.85,0,0,0,41.7,0V152.83a1.73,1.73,0,0,1,3.45,0v32.59A24.33,24.33,0,0,1,569.35,209.72Z"/><path class="ai" d="M571.14,207.93a24.33,24.33,0,0,1-24.3-24.3V151a1.73,1.73,0,1,1,3.45,0v32.59a20.85,20.85,0,0,0,41.7,0V151a1.73,1.73,0,1,1,3.45,0v32.59A24.33,24.33,0,0,1,571.14,207.93Z"/><g class="aj"><g class="ak"><polygon class="al" points="670.16 133.64 618.62 184.84 655.67 221.91 706.16 171.44 670.16 133.64"/></g></g><path class="r" d="M680.25,148.8l-2-.44a23.56,23.56,0,0,0,.55-5,22.68,22.68,0,0,0-.34-4l2-.35a24.83,24.83,0,0,1,.37,4.31A25.12,25.12,0,0,1,680.25,148.8Z"/><path class="am" d="M670,134.87l-3.53,13.31a2.14,2.14,0,0,0,0,1.15l12.38,45.74a2.24,2.24,0,0,0,2.75,1.58l25.91-7a2.23,2.23,0,0,0,1.57-2.74l-12.39-45.74a2.15,2.15,0,0,0-.58-1l-9.76-9.71a2.25,2.25,0,0,0-2.16-.58l-12.62,3.42A2.25,2.25,0,0,0,670,134.87Zm7.32,5a2.73,2.73,0,1,1,3.35,1.92A2.74,2.74,0,0,1,677.33,139.91Z"/><path class="an" d="M669.32,134.87l-3.53,13.31a2.14,2.14,0,0,0,0,1.15l12.38,45.74a2.24,2.24,0,0,0,2.75,1.58l25.91-7a2.23,2.23,0,0,0,1.57-2.74L696,141.15a2.15,2.15,0,0,0-.58-1l-9.76-9.71a2.25,2.25,0,0,0-2.16-.58l-12.62,3.42A2.25,2.25,0,0,0,669.32,134.87Zm7.32,5a2.73,2.73,0,1,1,3.35,1.92A2.74,2.74,0,0,1,676.64,139.91Z"/><path class="r" d="M655.8,118.28a25.05,25.05,0,0,0-19.24,9h2.68a23,23,0,0,1,39.27,12.05l2-.35A25,25,0,0,0,655.8,118.28Z"/></svg>