<svg xmlns="http://www.w3.org/2000/svg" xmlns:xlink="http://www.w3.org/1999/xlink" viewBox="0 0 720 316"><defs><style>.a{isolation:isolate;}.b{opacity:0.4;}.c,.o{fill:#e8eaed;}.c{mix-blend-mode:multiply;}.d{fill:#bdc1c6;}.e{fill:#fff;}.f{fill:url(#a);}.g{opacity:0.5;}.h{fill:url(#b);}.i{fill:#fdd663;}.j{fill:url(#c);}.k{fill:#d1af90;}.l,.m{opacity:0.2;}.l{fill:url(#d);}.m{fill:url(#e);}.n{fill:#f1f3f4;}.p{fill:#5bb974;}.q{fill:#4285f4;}.r{fill:#e94235;}.s{fill:#fbbc04;}.t{fill:#3c4043;}.u{fill:#c09d6f;}.v{fill:#fcc934;}.w{fill:url(#f);}.x{fill:#f9ab00;}.y{opacity:0.16;fill:url(#g);}.z{fill:#1a73e8;}.aa{fill:#669df6;}</style><linearGradient id="a" x1="557.33" y1="156.48" x2="557.33" y2="293.17" gradientUnits="userSpaceOnUse"><stop offset="0" stop-color="#fff" stop-opacity="0"/><stop offset="1" stop-color="#fff"/></linearGradient><linearGradient id="b" x1="130.79" y1="169.55" x2="130.79" y2="306.24" xlink:href="#a"/><linearGradient id="c" x1="220.91" y1="46.18" x2="215.86" y2="51.97" gradientUnits="userSpaceOnUse"><stop offset="0" stop-color="#9aa0a6"/><stop offset="1" stop-color="#bdc1c6"/></linearGradient><linearGradient id="d" x1="50.87" y1="305.78" x2="239.57" y2="305.78" gradientUnits="userSpaceOnUse"><stop offset="0" stop-color="#202124" stop-opacity="0"/><stop offset="1" stop-color="#202124"/></linearGradient><linearGradient id="e" x1="558.54" y1="305.78" x2="662.96" y2="305.78" xlink:href="#d"/><linearGradient id="f" x1="547.09" y1="176.46" x2="551.83" y2="168.13" gradientTransform="matrix(-0.99, 0.11, 0.11, 0.99, 723.72, -190.31)" gradientUnits="userSpaceOnUse"><stop offset="0.36" stop-color="#fbbc04"/><stop offset="0.74" stop-color="#fcc934"/></linearGradient><linearGradient id="g" x1="195.79" y1="78.59" x2="192.93" y2="85.84" gradientUnits="userSpaceOnUse"><stop offset="0.33" stop-color="#202124"/><stop offset="1" stop-color="#202124" stop-opacity="0"/></linearGradient></defs><title>d_v4geo</title><g class="a"><g class="b"><rect class="c" x="479.36" y="18.12" width="158.71" height="265.82"/><rect class="d" x="511.08" y="141.79" width="52.03" height="3.39"/><rect class="d" x="511.08" y="148.57" width="52.03" height="3.39"/><rect class="d" x="511.08" y="155.35" width="52.03" height="3.39"/><rect class="d" x="511.08" y="162.13" width="34.35" height="3.39"/><rect class="d" x="511.08" y="97.72" width="95.27" height="3.39"/><rect class="d" x="511.08" y="104.5" width="95.27" height="3.39"/><rect class="d" x="511.08" y="111.28" width="95.27" height="3.39"/><rect class="d" x="511.08" y="118.06" width="62.91" height="3.39"/><rect class="d" x="511.08" y="188.89" width="95.27" height="3.39"/><rect class="d" x="511.08" y="195.67" width="95.27" height="3.39"/><rect class="d" x="511.08" y="202.45" width="95.27" height="3.39"/><rect class="d" x="511.08" y="209.23" width="62.91" height="3.39"/><rect class="e" x="492.09" y="37.39" width="133.24" height="50.65"/><rect class="e" x="574.68" y="129.06" width="50.65" height="50.65"/></g><rect class="f" x="432.14" y="145.72" width="250.39" height="152.73"/><g class="g"><rect class="c" x="36.12" y="45.21" width="158.71" height="265.82"/><rect class="d" x="67.84" y="124.81" width="95.27" height="3.39"/><rect class="d" x="67.84" y="131.59" width="95.27" height="3.39"/><rect class="d" x="67.84" y="138.37" width="95.27" height="3.39"/><rect class="d" x="67.84" y="145.15" width="62.91" height="3.39"/><rect class="e" x="48.86" y="64.47" width="133.24" height="50.65"/><rect class="e" x="141.24" y="165.87" width="40.93" height="40.93"/><rect class="e" x="95.02" y="165.87" width="40.93" height="40.93"/><rect class="e" x="48.79" y="165.87" width="40.93" height="40.93"/><rect class="e" x="141.24" y="212.46" width="40.93" height="40.93"/><rect class="e" x="95.02" y="212.46" width="40.93" height="40.93"/><rect class="e" x="48.79" y="212.46" width="40.93" height="40.93"/></g><rect class="h" x="22.29" y="158.78" width="217.01" height="152.73"/><rect class="i" x="227.29" y="120.32" width="2.37" height="190.45" transform="translate(-42.22 56.22) rotate(-12.85)"/><polygon class="i" points="214.13 310.37 171.26 122.44 168.94 122.97 211.69 310.37 214.13 310.37"/><path class="j" d="M191.9,79.14l19.15-2.73a7.39,7.39,0,0,0,5.63-4.15l10.88-22.73-3.8-2.62-11.6,16.62H190.21a7.25,7.25,0,0,0-6.91,5h0C181.49,74.14,186.21,80,191.9,79.14Z"/><path class="k" d="M209,57.44l-.79-4.81,1.46-.51-2.35-4.89-.91-5.53L196.24,41a5.33,5.33,0,0,0-5.72,5h0a11,11,0,0,0,.85,5L192.7,54l-1.35,4.29A21.1,21.1,0,0,1,188,64.76l-1.26,1.63a2.2,2.2,0,0,0,.47,3.14h0a11.87,11.87,0,0,0,7.4,2.18h0a1.78,1.78,0,0,0,1.7-1.56l.49-3.94a11,11,0,0,1,1.21-3.8l.09-.17a2.33,2.33,0,0,1,3-1l1.9.84a4.21,4.21,0,0,0,4-.32l.11-.07A4.25,4.25,0,0,0,209,57.44Z"/><rect class="l" x="50.87" y="301.2" width="188.7" height="9.17"/><rect class="m" x="558.54" y="301.2" width="104.42" height="9.17"/><rect class="n" x="227.13" y="90.11" width="310.05" height="220.26"/><rect class="o" x="223.57" y="90.11" width="310.05" height="220.26"/><path class="o" d="M233,55.69H533.68a4.69,4.69,0,0,1,4.69,4.69V73.59a0,0,0,0,1,0,0H228.32a0,0,0,0,1,0,0V60.38A4.69,4.69,0,0,1,233,55.69Z" transform="translate(9.11 -40.62) rotate(6.14)"/><path class="d" d="M229.45,55.46H530.13a4.69,4.69,0,0,1,4.69,4.69V73.36a0,0,0,0,1,0,0H224.76a0,0,0,0,1,0,0V60.15a4.69,4.69,0,0,1,4.69-4.69Z" transform="translate(9.07 -40.24) rotate(6.14)"/><circle class="p" cx="235.07" cy="48.85" r="2.97"/><rect class="q" x="245.12" y="105.09" width="264.01" height="78.98"/><rect class="e" x="245.12" y="253.26" width="81.78" height="42.46"/><rect class="e" x="336.17" y="253.26" width="81.78" height="42.46"/><rect class="e" x="427.36" y="253.26" width="81.78" height="42.46"/><rect class="e" x="285.33" y="132.25" width="183.6" height="6.53"/><rect class="e" x="319.85" y="150.38" width="114.56" height="6.53"/><rect class="d" x="285.33" y="195.95" width="183.6" height="6.53"/><rect class="d" x="285.33" y="209.02" width="183.6" height="6.53"/><rect class="d" x="285.33" y="222.08" width="183.6" height="6.53"/><rect class="d" x="285.33" y="235.15" width="121.22" height="6.53"/><path class="r" d="M278.8,285.46A12.86,12.86,0,0,1,297,267.28Z"/><rect class="s" x="367.07" y="264.49" width="19.99" height="19.99" transform="translate(-69.21 138.99) rotate(-19.16)"/><polygon class="p" points="478.97 285.04 457.52 280.01 472.6 263.94 478.97 285.04"/><circle class="s" cx="290.33" cy="280.69" r="4.77"/><rect class="q" x="379.37" y="283.95" width="12.47" height="3.27"/><circle class="s" cx="455.23" cy="282.12" r="2.92"/><polygon class="t" points="172.13 183.78 171.52 186.6 182.91 186.6 183.38 185.19 178.06 183.78 172.13 183.78"/><rect class="i" x="164.43" y="120.93" width="48.26" height="2.38"/><path class="u" d="M207.33,47.23l-.77-4.63-15.25.92a5.22,5.22,0,0,0-.79,2.44,11,11,0,0,0,.85,5l0,0a120.55,120.55,0,0,0,17.16-1.2Z"/><path class="v" d="M188.1,48.16l-1,.91s.61.8,6.71.38,11.51-1.06,13.24-1.29a24.94,24.94,0,0,1,5.79-.31,2.09,2.09,0,0,0,.73-.18c.37-.16-.13-.47-.13-.47l-3-2Z"/><path class="w" d="M188.1,48.16c-.62-6.82,3.69-12.85,9.83-13.54s11.5,4,12.56,10.59c0,0-.76.94-6.79,1.74S190.73,48.68,188.1,48.16Z"/><polygon class="v" points="196.97 48.35 192.49 48.68 193.1 46.42 196.11 46.09 196.97 48.35"/><polygon class="x" points="197.25 48.32 192.77 48.65 193.38 46.39 196.39 46.05 197.25 48.32"/><polygon class="v" points="200.45 48.28 204.55 47.82 204.02 46.5 200.3 46.92 200.45 48.28"/><polygon class="x" points="200.7 48.25 204.8 47.79 204.27 46.48 200.55 46.89 200.7 48.25"/><polygon class="v" points="209.92 46.27 209.13 44.27 207.47 44.62 207.64 46.98 209.92 46.27"/><polygon class="x" points="210.15 46.24 209.36 44.25 207.7 44.59 207.86 46.96 210.15 46.24"/><path class="s" d="M205.83,37,204,34.76a13.43,13.43,0,0,0-7.49.34c-3.44,1.41-5.75,5.3-5.75,5.3s4.37-4,8.86-4.67S205.83,37,205.83,37Z"/><path class="y" d="M198.37,71.72l-11.19,2.65L198.9,96.71h0a20.74,20.74,0,0,0,1.6-7.11l.68-16Z"/><path class="o" d="M192.31,78.74,212.4,81.5a8.09,8.09,0,0,0,6.95-2.41l18.1-18.79-3-3.59L217.57,69.44l-22-6.2A7.93,7.93,0,0,0,187,66.16h0A7.93,7.93,0,0,0,192.31,78.74Z"/><polygon class="k" points="234.46 56.71 234.46 54.56 235.61 51.46 235.61 49.57 236.4 49.57 236.95 51.25 236.75 53.62 241 47.91 241.75 48.25 239.62 52.04 242.19 48.68 242.84 49.32 240.71 52.78 243.33 50.11 243.73 50.41 241.7 53.48 243.73 52.14 243.73 52.73 240.06 57.38 236.4 59.04 234.46 56.71"/><polygon class="k" points="224.14 46.95 224.31 43.89 225.38 43.45 228.77 43.86 228.71 44.98 227.01 45.31 225.93 45.29 225.61 48.18 224.13 47.16 224.14 46.95"/><polygon class="t" points="148.6 183.78 148.6 186.6 161.26 186.6 161.26 185.19 153.5 183.78 148.6 183.78"/><rect class="s" x="157.52" y="134.33" width="37.19" height="2.38"/><rect class="s" x="154.55" y="147.45" width="37.19" height="2.38"/><rect class="s" x="151.58" y="160.58" width="37.19" height="2.38"/><rect class="s" x="148.61" y="173.7" width="37.19" height="2.38"/><rect class="s" x="145.64" y="186.83" width="37.19" height="2.38"/><rect class="s" x="142.67" y="199.96" width="37.19" height="2.38"/><rect class="s" x="139.7" y="213.08" width="37.19" height="2.38"/><rect class="s" x="136.73" y="226.21" width="37.19" height="2.38"/><rect class="s" x="133.76" y="239.33" width="37.19" height="2.38"/><rect class="s" x="130.79" y="252.46" width="37.19" height="2.38"/><rect class="s" x="127.82" y="265.59" width="37.19" height="2.38"/><rect class="s" x="124.85" y="278.71" width="37.19" height="2.38"/><rect class="s" x="121.88" y="291.84" width="37.19" height="2.38"/><rect class="s" x="154.93" y="120.93" width="48.26" height="2.38"/><polygon class="s" points="155.91 310.37 198.79 122.97 196.47 122.44 153.47 310.37 155.91 310.37"/><polygon class="s" points="118.72 310.37 161.59 122.97 159.28 122.44 116.28 310.37 118.72 310.37"/><path class="z" d="M160.45,108.79l1,33.7L153.05,161a18.55,18.55,0,0,0-1.36,4.48l-3.09,18.32h4.9l11.05-20.24,10-16.22,5.72-27.62-5.31-5Z"/><path class="q" d="M160.26,96.71l-.93,7.53a22.82,22.82,0,0,0,4,15.92l15.19,21.72-3.66,17.52a19.94,19.94,0,0,0-.33,2.17l-2.36,22.21h5.92l14.07-35.56a6.77,6.77,0,0,0,.45-3.39l-4.48-35.24-4.64-6.48a17.73,17.73,0,0,0-16.74-7.25Z"/><path class="o" d="M160.26,96.71,164.55,89a84.4,84.4,0,0,1,17.78-22.23l8.82-7.83,10.22,10.22L200.5,89.6a20.68,20.68,0,0,1-6.16,13.84l-6.25,6.15Z"/><rect class="o" x="528.72" y="258.44" width="152.57" height="22.06" rx="11.03" ry="11.03" transform="translate(190.46 -247.05) rotate(27.24)"/><path class="aa" d="M664,296a3.11,3.11,0,1,1-3.91-2A3.12,3.12,0,0,1,664,296Zm2.16-.69a5.38,5.38,0,0,0-10.47,2.16l-4.43,1.42.69,2.16,4.43-1.42a5.38,5.38,0,0,0,9.78-4.32Z"/></g></svg>