<svg xmlns="http://www.w3.org/2000/svg" xmlns:xlink="http://www.w3.org/1999/xlink" viewBox="0 0 720 316"><defs><linearGradient id="a" x1="125.57" y1="147.39" x2="125.57" y2="-65.92" gradientUnits="userSpaceOnUse"><stop offset="0" stop-color="#dadce0" stop-opacity="0"/><stop offset="1" stop-color="#dadce0"/></linearGradient><linearGradient id="b" x1="335.51" y1="99.43" x2="335.51" y2="-8.69" xlink:href="#a"/><linearGradient id="c" x1="65.26" y1="305.33" x2="0.42" y2="305.33" gradientUnits="userSpaceOnUse"><stop offset="0" stop-color="#202124"/><stop offset="1" stop-color="#202124" stop-opacity="0"/></linearGradient><linearGradient id="d" x1="92.21" y1="237.41" x2="200.74" y2="201.09" gradientTransform="matrix(1, 0, 0, -1, -17.76, 438.14)" gradientUnits="userSpaceOnUse"><stop offset="0" stop-color="#f1f3f4"/><stop offset="1" stop-color="#e8eaed"/></linearGradient><linearGradient id="e" x1="356.24" y1="305.33" x2="451.04" y2="305.33" gradientUnits="userSpaceOnUse"><stop offset="0" stop-color="#202124" stop-opacity="0"/><stop offset="1" stop-color="#202124"/></linearGradient><linearGradient id="f" x1="263.67" y1="305.33" x2="145.15" y2="305.33" xlink:href="#c"/><linearGradient id="g" x1="514.2" y1="307.53" x2="514.2" y2="299.02" gradientUnits="userSpaceOnUse"><stop offset="0" stop-color="#bdc1c6"/><stop offset="1" stop-color="#d7d9dd"/></linearGradient><linearGradient id="h" x1="466.69" y1="168.97" x2="530.26" y2="137.18" gradientUnits="userSpaceOnUse"><stop offset="0" stop-color="#34a853"/><stop offset="1" stop-color="#5bb974"/></linearGradient><linearGradient id="i" x1="306.18" y1="182.3" x2="306.18" y2="143.52" gradientUnits="userSpaceOnUse"><stop offset="0" stop-color="#bdc1c6"/><stop offset="1" stop-color="#e8eaed"/></linearGradient><linearGradient id="j" x1="224.28" y1="217.46" x2="331.53" y2="259.43" xlink:href="#i"/><linearGradient id="k" x1="288.52" y1="244.37" x2="270.47" y2="225.9" gradientUnits="userSpaceOnUse"><stop offset="0" stop-color="#5f6368"/><stop offset="1" stop-color="#9aa0a6"/></linearGradient><linearGradient id="l" x1="294.22" y1="259.02" x2="277.85" y2="259.02" xlink:href="#k"/><linearGradient id="m" x1="578.52" y1="215.22" x2="679.55" y2="215.22" xlink:href="#i"/><linearGradient id="n" x1="574.12" y1="213.2" x2="670.71" y2="213.2" gradientUnits="userSpaceOnUse"><stop offset="0" stop-color="#4386f4"/><stop offset="0.22" stop-color="#4285f4"/><stop offset="1" stop-color="#669df6"/></linearGradient></defs><title>d_v4geo</title><g style="isolation:isolate"><path d="M178.92,155.78a45.39,45.39,0,1,0,13.93-88.19,37.6,37.6,0,0,0-62.1-11.68,63.54,63.54,0,1,0-83,88.2Z" fill="url(#a)"/><path d="M386.56,96a31.35,31.35,0,1,0-18-57,43.81,43.81,0,0,0-85.12,7,25.94,25.94,0,0,0-5.1-.51,25.27,25.27,0,0,0,0,50.53Z" fill="url(#b)"/><rect y="302.33" width="68.26" height="6" opacity="0.2" fill="url(#c)"/><rect x="44.24" y="129.81" width="126.71" height="178.52" rx="7.88" ry="7.88" transform="translate(215.18 438.14) rotate(-180)" fill="#dadce0"/><rect x="65.9" y="129.81" width="126.71" height="178.52" rx="7.88" ry="7.88" transform="translate(258.51 438.14) rotate(-180)" fill="url(#d)"/><rect x="72.97" y="136.98" width="112.56" height="24.62" rx="7.09" ry="7.09" transform="translate(258.51 298.59) rotate(-180)" fill="none" stroke="#dadce0" stroke-miterlimit="10" stroke-width="0.66"/><circle cx="172.64" cy="149.29" r="3.05" fill="#e94235"/><line x1="136.66" y1="149.29" x2="83.75" y2="149.29" fill="none" stroke="#9aa0a6" stroke-linecap="round" stroke-linejoin="round" stroke-width="1.31"/><rect x="72.97" y="164.89" width="112.56" height="24.62" rx="7.09" ry="7.09" transform="translate(258.51 354.41) rotate(-180)" fill="none" stroke="#dadce0" stroke-miterlimit="10" stroke-width="0.66"/><circle cx="172.64" cy="177.2" r="3.05" fill="#e94235"/><line x1="136.66" y1="177.2" x2="83.75" y2="177.2" fill="none" stroke="#9aa0a6" stroke-linecap="round" stroke-linejoin="round" stroke-width="1.31"/><rect x="72.97" y="192.8" width="112.56" height="24.62" rx="7.09" ry="7.09" transform="translate(258.51 410.23) rotate(-180)" fill="none" stroke="#dadce0" stroke-miterlimit="10" stroke-width="0.66"/><circle cx="172.64" cy="205.11" r="3.05" fill="#e94235"/><line x1="136.66" y1="205.11" x2="83.75" y2="205.11" fill="none" stroke="#9aa0a6" stroke-linecap="round" stroke-linejoin="round" stroke-width="1.31"/><rect x="72.97" y="220.71" width="112.56" height="24.62" rx="7.09" ry="7.09" transform="translate(258.51 466.04) rotate(-180)" fill="none" stroke="#dadce0" stroke-miterlimit="10" stroke-width="0.66"/><circle cx="172.64" cy="233.02" r="3.05" fill="#e94235"/><line x1="136.66" y1="233.02" x2="83.75" y2="233.02" fill="none" stroke="#9aa0a6" stroke-linecap="round" stroke-linejoin="round" stroke-width="1.31"/><rect x="72.97" y="248.62" width="112.56" height="24.62" rx="7.09" ry="7.09" transform="translate(258.51 521.86) rotate(-180)" fill="none" stroke="#dadce0" stroke-miterlimit="10" stroke-width="0.66"/><circle cx="172.64" cy="260.93" r="3.05" fill="#e94235"/><line x1="136.66" y1="260.93" x2="83.75" y2="260.93" fill="none" stroke="#9aa0a6" stroke-linecap="round" stroke-linejoin="round" stroke-width="1.31"/><rect x="72.97" y="276.53" width="112.56" height="24.62" rx="7.09" ry="7.09" transform="translate(258.51 577.68) rotate(-180)" fill="none" stroke="#dadce0" stroke-miterlimit="10" stroke-width="0.66"/><circle cx="172.64" cy="288.84" r="3.05" fill="#e94235"/><line x1="136.66" y1="288.84" x2="83.75" y2="288.84" fill="none" stroke="#9aa0a6" stroke-linecap="round" stroke-linejoin="round" stroke-width="1.31"/><rect x="355.86" y="302.33" width="98.38" height="6" opacity="0.2" fill="url(#e)"/><rect x="144.38" y="302.33" width="124.76" height="6" opacity="0.2" fill="url(#f)"/><rect x="506.39" y="240.19" width="15.62" height="57.86" fill="#bdc1c6"/><rect x="506.39" y="240.19" width="15.62" height="18.93" fill="#3c4043" opacity="0.2" style="mix-blend-mode:luminosity"/><path d="M457.15,298.05H571.26a10.28,10.28,0,0,1,10.28,10.28v0a0,0,0,0,1,0,0H446.87a0,0,0,0,1,0,0v0A10.28,10.28,0,0,1,457.15,298.05Z" fill="url(#g)"/><rect x="335.51" y="31.08" width="362" height="220.02" fill="#dadce0"/><rect x="329.74" y="31.08" width="362" height="220.02" fill="#bdc1c6"/><rect x="342.82" y="43.14" width="335.83" height="195.89" fill="#fbbc04"/><polygon points="342.82 43.14 342.82 47.14 674.66 47.14 674.66 239.03 678.66 239.03 678.66 43.14 342.82 43.14" fill="#174ea6" opacity="0.1"/><path d="M366.35,61.91H651.13a3,3,0,0,1,3,3V224.27a0,0,0,0,1,0,0H363.35a0,0,0,0,1,0,0V64.91A3,3,0,0,1,366.35,61.91Z" fill="#174ea6" opacity="0.1"/><path d="M368.35,59.91H653.13a3,3,0,0,1,3,3V222.27a0,0,0,0,1,0,0H365.35a0,0,0,0,1,0,0V62.91A3,3,0,0,1,368.35,59.91Z" fill="#fff"/><path d="M368.35,59.91H653.13a3,3,0,0,1,3,3v8.36a0,0,0,0,1,0,0H365.35a0,0,0,0,1,0,0V62.91A3,3,0,0,1,368.35,59.91Z" fill="#bdc1c6"/><path d="M513.63,199.43c22.94-10,38.6-30.11,41.42-53.15a90.31,90.31,0,0,0,.94-11.14V112.63L513.63,96.56l-42.37,16.07v22.51a92.3,92.3,0,0,0,.94,11.14C475,169.32,490.68,189.4,513.63,199.43Z" fill="url(#h)"/><polyline points="492.96 144.04 505.45 156.52 534.29 127.69" fill="none" stroke="#fff" stroke-miterlimit="10" stroke-width="10"/><path d="M372,194.82H351.42V153.34a45.24,45.24,0,1,0-90.48,0v41.48H240.36V153.34a65.82,65.82,0,0,1,131.64,0Z" fill="url(#i)"/><rect x="247.44" y="178.31" width="149.13" height="130.01" rx="5.64" ry="5.64" fill="#f1f3f4"/><rect x="215.79" y="178.31" width="149.13" height="130.01" rx="5.64" ry="5.64" fill="url(#j)"/><g opacity="0.5"><line x1="215.79" y1="290.56" x2="364.92" y2="290.56" fill="none" stroke="#f1f3f4" stroke-miterlimit="10" stroke-width="0.79"/><line x1="215.79" y1="289.76" x2="364.92" y2="289.76" fill="none" stroke="#bdc1c6" stroke-miterlimit="10" stroke-width="0.79"/><line x1="215.79" y1="282.75" x2="364.92" y2="282.75" fill="none" stroke="#f1f3f4" stroke-miterlimit="10" stroke-width="0.79"/><line x1="215.79" y1="281.96" x2="364.92" y2="281.96" fill="none" stroke="#bdc1c6" stroke-miterlimit="10" stroke-width="0.79"/><line x1="215.79" y1="274.94" x2="364.92" y2="274.94" fill="none" stroke="#f1f3f4" stroke-miterlimit="10" stroke-width="0.79"/><line x1="215.79" y1="274.15" x2="364.92" y2="274.15" fill="none" stroke="#bdc1c6" stroke-miterlimit="10" stroke-width="0.79"/><line x1="215.79" y1="267.14" x2="364.92" y2="267.14" fill="none" stroke="#f1f3f4" stroke-miterlimit="10" stroke-width="0.79"/><line x1="215.79" y1="266.34" x2="364.92" y2="266.34" fill="none" stroke="#bdc1c6" stroke-miterlimit="10" stroke-width="0.79"/><line x1="215.79" y1="259.33" x2="364.92" y2="259.33" fill="none" stroke="#f1f3f4" stroke-miterlimit="10" stroke-width="0.79"/><line x1="215.79" y1="258.54" x2="364.92" y2="258.54" fill="none" stroke="#bdc1c6" stroke-miterlimit="10" stroke-width="0.79"/><line x1="215.79" y1="251.52" x2="364.92" y2="251.52" fill="none" stroke="#f1f3f4" stroke-miterlimit="10" stroke-width="0.79"/><line x1="215.79" y1="250.73" x2="364.92" y2="250.73" fill="none" stroke="#bdc1c6" stroke-miterlimit="10" stroke-width="0.79"/><line x1="215.79" y1="243.72" x2="364.92" y2="243.72" fill="none" stroke="#f1f3f4" stroke-miterlimit="10" stroke-width="0.79"/><line x1="215.79" y1="242.92" x2="364.92" y2="242.92" fill="none" stroke="#bdc1c6" stroke-miterlimit="10" stroke-width="0.79"/><line x1="215.79" y1="235.91" x2="364.92" y2="235.91" fill="none" stroke="#f1f3f4" stroke-miterlimit="10" stroke-width="0.79"/><line x1="215.79" y1="235.12" x2="364.92" y2="235.12" fill="none" stroke="#bdc1c6" stroke-miterlimit="10" stroke-width="0.79"/><line x1="215.79" y1="228.1" x2="364.92" y2="228.1" fill="none" stroke="#f1f3f4" stroke-miterlimit="10" stroke-width="0.79"/><line x1="215.79" y1="227.31" x2="364.92" y2="227.31" fill="none" stroke="#bdc1c6" stroke-miterlimit="10" stroke-width="0.79"/><line x1="215.79" y1="220.3" x2="364.92" y2="220.3" fill="none" stroke="#f1f3f4" stroke-miterlimit="10" stroke-width="0.79"/><line x1="215.79" y1="219.5" x2="364.92" y2="219.5" fill="none" stroke="#bdc1c6" stroke-miterlimit="10" stroke-width="0.79"/><line x1="215.79" y1="212.49" x2="364.92" y2="212.49" fill="none" stroke="#f1f3f4" stroke-miterlimit="10" stroke-width="0.79"/><line x1="215.79" y1="211.7" x2="364.92" y2="211.7" fill="none" stroke="#bdc1c6" stroke-miterlimit="10" stroke-width="0.79"/><line x1="215.79" y1="204.68" x2="364.92" y2="204.68" fill="none" stroke="#f1f3f4" stroke-miterlimit="10" stroke-width="0.79"/><line x1="215.79" y1="203.89" x2="364.92" y2="203.89" fill="none" stroke="#bdc1c6" stroke-miterlimit="10" stroke-width="0.79"/><line x1="215.79" y1="196.88" x2="364.92" y2="196.88" fill="none" stroke="#f1f3f4" stroke-miterlimit="10" stroke-width="0.79"/><line x1="215.79" y1="196.08" x2="364.92" y2="196.08" fill="none" stroke="#bdc1c6" stroke-miterlimit="10" stroke-width="0.79"/></g><g opacity="0.5"><line x1="364.92" y1="290.56" x2="396.58" y2="290.56" fill="none" stroke="#f1f3f4" stroke-miterlimit="10" stroke-width="0.36"/><line x1="364.92" y1="289.76" x2="396.58" y2="289.76" fill="none" stroke="#bdc1c6" stroke-miterlimit="10" stroke-width="0.36"/><line x1="364.92" y1="282.75" x2="396.58" y2="282.75" fill="none" stroke="#f1f3f4" stroke-miterlimit="10" stroke-width="0.36"/><line x1="364.92" y1="281.96" x2="396.58" y2="281.96" fill="none" stroke="#bdc1c6" stroke-miterlimit="10" stroke-width="0.36"/><line x1="364.92" y1="274.94" x2="396.58" y2="274.94" fill="none" stroke="#f1f3f4" stroke-miterlimit="10" stroke-width="0.36"/><line x1="364.92" y1="274.15" x2="396.58" y2="274.15" fill="none" stroke="#bdc1c6" stroke-miterlimit="10" stroke-width="0.36"/><line x1="364.92" y1="267.14" x2="396.58" y2="267.14" fill="none" stroke="#f1f3f4" stroke-miterlimit="10" stroke-width="0.36"/><line x1="364.92" y1="266.34" x2="396.58" y2="266.34" fill="none" stroke="#bdc1c6" stroke-miterlimit="10" stroke-width="0.36"/><line x1="364.92" y1="259.33" x2="396.58" y2="259.33" fill="none" stroke="#f1f3f4" stroke-miterlimit="10" stroke-width="0.36"/><line x1="364.92" y1="258.54" x2="396.58" y2="258.54" fill="none" stroke="#bdc1c6" stroke-miterlimit="10" stroke-width="0.36"/><line x1="364.92" y1="251.52" x2="396.58" y2="251.52" fill="none" stroke="#f1f3f4" stroke-miterlimit="10" stroke-width="0.36"/><line x1="364.92" y1="250.73" x2="396.58" y2="250.73" fill="none" stroke="#bdc1c6" stroke-miterlimit="10" stroke-width="0.36"/><line x1="364.92" y1="243.72" x2="396.58" y2="243.72" fill="none" stroke="#f1f3f4" stroke-miterlimit="10" stroke-width="0.36"/><line x1="364.92" y1="242.92" x2="396.58" y2="242.92" fill="none" stroke="#bdc1c6" stroke-miterlimit="10" stroke-width="0.36"/><line x1="364.92" y1="235.91" x2="396.58" y2="235.91" fill="none" stroke="#f1f3f4" stroke-miterlimit="10" stroke-width="0.36"/><line x1="364.92" y1="235.12" x2="396.58" y2="235.12" fill="none" stroke="#bdc1c6" stroke-miterlimit="10" stroke-width="0.36"/><line x1="364.92" y1="228.1" x2="396.58" y2="228.1" fill="none" stroke="#f1f3f4" stroke-miterlimit="10" stroke-width="0.36"/><line x1="364.92" y1="227.31" x2="396.58" y2="227.31" fill="none" stroke="#bdc1c6" stroke-miterlimit="10" stroke-width="0.36"/><line x1="364.92" y1="220.3" x2="396.58" y2="220.3" fill="none" stroke="#f1f3f4" stroke-miterlimit="10" stroke-width="0.36"/><line x1="364.92" y1="219.5" x2="396.58" y2="219.5" fill="none" stroke="#bdc1c6" stroke-miterlimit="10" stroke-width="0.36"/><line x1="364.92" y1="212.49" x2="396.58" y2="212.49" fill="none" stroke="#f1f3f4" stroke-miterlimit="10" stroke-width="0.36"/><line x1="364.92" y1="211.7" x2="396.58" y2="211.7" fill="none" stroke="#bdc1c6" stroke-miterlimit="10" stroke-width="0.36"/><line x1="364.92" y1="204.68" x2="396.58" y2="204.68" fill="none" stroke="#f1f3f4" stroke-miterlimit="10" stroke-width="0.36"/><line x1="364.92" y1="203.89" x2="396.58" y2="203.89" fill="none" stroke="#bdc1c6" stroke-miterlimit="10" stroke-width="0.36"/><line x1="364.92" y1="196.88" x2="396.58" y2="196.88" fill="none" stroke="#f1f3f4" stroke-miterlimit="10" stroke-width="0.36"/><line x1="364.92" y1="196.08" x2="396.58" y2="196.08" fill="none" stroke="#bdc1c6" stroke-miterlimit="10" stroke-width="0.36"/></g><path d="M306.72,225.32a16.37,16.37,0,1,0-24.93,13.93l-3,39.54H301.9l-3-39.54A16.34,16.34,0,0,0,306.72,225.32Z" fill="url(#k)"/><polygon points="298.92 239.25 281.79 239.25 278.81 278.79 301.89 278.79 298.92 239.25" fill="url(#l)"/><rect x="578.52" y="122.82" width="101.03" height="184.8" rx="7.22" ry="7.22" fill="url(#m)"/><rect x="571.9" y="122.82" width="101.03" height="184.8" rx="7.22" ry="7.22" fill="#bdc1c6"/><rect x="574.12" y="134.75" width="96.59" height="156.9" fill="url(#n)"/><path d="M622.42,228.48a5.56,5.56,0,1,0-5.56-5.56A5.57,5.57,0,0,0,622.42,228.48Zm16.66-25H636.3v-5.55a13.89,13.89,0,0,0-27.77,0v5.55h-2.77A5.57,5.57,0,0,0,600.2,209v27.77a5.57,5.57,0,0,0,5.56,5.55h33.32a5.57,5.57,0,0,0,5.55-5.55V209A5.57,5.57,0,0,0,639.08,203.48Zm-25.27-5.55a8.61,8.61,0,1,1,17.22,0v5.55H613.81Zm25.27,38.88H605.76V209h33.32Z" fill="#fff"/><rect x="599.22" y="297.69" width="46.39" height="4.08" rx="2.04" ry="2.04" fill="#f8f9fa"/></g></svg>